<svg width="100" height="94" viewBox="0 0 100 94" fill="none" xmlns="http://www.w3.org/2000/svg">
<path d="M88.6951 0.129944H11.3102C5.07247 0.129944 0 5.20074 0 11.4458V82.5673C0 88.805 5.07247 93.8704 11.3102 93.8704H88.6948C94.9325 93.8704 99.9997 88.805 99.9997 82.5673V11.4458C100 5.20074 94.9329 0.129944 88.6951 0.129944ZM64.6651 16.9589C70.6973 16.9589 75.5893 21.8512 75.5893 27.8831C75.5893 33.915 70.6969 38.8073 64.6651 38.8073C58.6312 38.8073 53.7408 33.915 53.7408 27.8831C53.7408 21.8512 58.6312 16.9589 64.6651 16.9589ZM85.1481 83.4155H49.999H16.4158C13.3987 83.4155 12.055 81.2326 13.4151 78.5395L32.1632 41.4057C33.5216 38.7129 36.1105 38.4726 37.944 40.8684L56.7958 65.5047C58.6292 67.9008 61.8338 68.1047 63.9547 65.9579L68.5666 61.2878C70.6859 59.1411 73.8084 59.4069 75.5381 61.8777L87.4803 78.9362C89.2066 81.4107 88.1652 83.4155 85.1481 83.4155Z" fill="#DCDCDC"/>
</svg>
