<svg width="104" height="21" viewBox="0 0 104 21" fill="none" xmlns="http://www.w3.org/2000/svg">
<path d="M7.92334 0.753595C9.71154 0.753595 11.2017 1.35199 12.3938 2.5488C13.604 3.7456 14.2091 5.23253 14.2091 7.00959C14.2091 8.76853 13.604 10.2555 12.3938 11.4704C11.2017 12.6672 9.71154 13.2656 7.92334 13.2656H4.04891V19.7936H0.933105V0.753595H7.92334ZM7.92334 10.328C8.84453 10.328 9.60316 10.0197 10.1992 9.4032C10.7953 8.76853 11.0933 7.97066 11.0933 7.00959C11.0933 6.04853 10.7953 5.25973 10.1992 4.64319C9.60316 4.00853 8.84453 3.6912 7.92334 3.6912H4.04891V10.328H7.92334Z" fill="#999999"/>
<path d="M27.635 19.7936L26.3074 15.9584H18.2334L16.9058 19.7936H13.5191L20.4009 0.753595H24.1399L30.9947 19.7936H27.635ZM19.263 13.0208H25.2778L22.2704 4.4256L19.263 13.0208Z" fill="#999999"/>
<path d="M44.2834 0.753595V3.74559H38.9459V19.7936H35.8301V3.74559H30.4655V0.753595H44.2834Z" fill="#999999"/>
<path d="M57.6689 19.7936L53.659 12.8576H49.9742V19.7936H46.8584V0.753595H54.4447C56.1426 0.753595 57.5786 1.35199 58.7526 2.5488C59.9448 3.72746 60.5408 5.16906 60.5408 6.87359C60.5408 8.08853 60.1886 9.20373 59.4842 10.2192C58.7978 11.2165 57.8946 11.9419 56.7748 12.3952L61.0827 19.7936H57.6689ZM49.9742 3.6912V10.056H54.4447C55.2756 10.056 55.98 9.74773 56.558 9.1312C57.136 8.51466 57.425 7.76213 57.425 6.87359C57.425 5.98506 57.136 5.23253 56.558 4.61599C55.98 3.99946 55.2756 3.6912 54.4447 3.6912H49.9742Z" fill="#999999"/>
<path d="M63.7455 0.753595H66.8613V19.7936H63.7455V0.753595Z" fill="#999999"/>
<path d="M86.7722 17.2912C84.8756 19.1952 82.5546 20.1472 79.809 20.1472C77.0635 20.1472 74.7335 19.1952 72.8188 17.2912C70.9222 15.3691 69.974 13.0299 69.974 10.2736C69.974 7.51733 70.9222 5.18719 72.8188 3.28319C74.7335 1.36106 77.0635 0.399994 79.809 0.399994C82.5546 0.399994 84.8756 1.36106 86.7722 3.28319C88.6868 5.18719 89.6441 7.51733 89.6441 10.2736C89.6441 13.0299 88.6868 15.3691 86.7722 17.2912ZM75.0134 15.1696C76.3139 16.4571 77.9125 17.1008 79.809 17.1008C81.7056 17.1008 83.2951 16.4571 84.5776 15.1696C85.8781 13.864 86.5283 12.232 86.5283 10.2736C86.5283 8.31519 85.8781 6.69226 84.5776 5.40479C83.2951 4.09919 81.7056 3.4464 79.809 3.4464C77.9125 3.4464 76.3139 4.09919 75.0134 5.40479C73.731 6.69226 73.0898 8.31519 73.0898 10.2736C73.0898 12.232 73.731 13.864 75.0134 15.1696Z" fill="#999999"/>
<path d="M104 0.753595V3.74559H98.6626V19.7936H95.5468V3.74559H90.1822V0.753595H104Z" fill="#999999"/>
</svg>
