<svg width="40" height="40" viewBox="0 0 40 40" fill="none" xmlns="http://www.w3.org/2000/svg">
<ellipse cx="19.9742" cy="20" rx="19.9742" ry="20" fill="#999999"/>
<g clip-path="url(#clip0_4_2916)">
<g filter="url(#filter0_i_4_2916)">
<path d="M25.8516 10.6543C25.2692 10.4874 24.6686 10.3947 24.0316 10.3947C20.5191 10.3947 17.6799 13.2874 17.6799 16.8662C17.6799 17.2371 17.6799 17.6821 17.6981 18.2013V28.6967C17.6981 30.0874 16.5879 31.2 15.2411 31.2C13.8762 31.2 12.7842 30.0689 12.7842 28.6967V16.9404C12.7842 12.453 16.3695 8.79999 20.7739 8.79999C22.703 8.79999 24.4684 9.50462 25.8516 10.6543Z" fill="url(#paint0_linear_4_2916)"/>
</g>
<g filter="url(#filter1_i_4_2916)">
<path d="M28.7636 16.7364V16.9404C28.7636 17.0331 28.7636 17.1073 28.7454 17.1815C28.5088 21.4649 25.0144 24.8768 20.7557 24.8768C19.3907 24.8768 18.2987 23.7457 18.2987 22.3735C18.2987 20.9828 19.4089 19.8702 20.7557 19.8702C22.4119 19.8702 23.7768 18.5166 23.8132 16.8477C23.7586 15.1788 22.4119 13.8252 20.7557 13.8252C19.7911 13.8252 18.9175 14.2888 18.3533 15.0119C17.9347 15.5497 17.6981 16.2172 17.6981 16.959V18.2199C17.6799 17.7007 17.6799 17.2557 17.6799 16.8848C17.6799 13.306 20.5191 10.4133 24.0316 10.4133C24.6686 10.4133 25.2692 10.506 25.8516 10.6729C27.526 12.0821 28.6362 14.159 28.7636 16.5139C28.7636 16.5696 28.7636 16.6623 28.7636 16.7364Z" fill="url(#paint1_linear_4_2916)"/>
</g>
</g>
<defs>
<filter id="filter0_i_4_2916" x="12.7842" y="8.79999" width="13.0674" height="22.4" filterUnits="userSpaceOnUse" color-interpolation-filters="sRGB">
<feFlood flood-opacity="0" result="BackgroundImageFix"/>
<feBlend mode="normal" in="SourceGraphic" in2="BackgroundImageFix" result="shape"/>
<feColorMatrix in="SourceAlpha" type="matrix" values="0 0 0 0 0 0 0 0 0 0 0 0 0 0 0 0 0 0 127 0" result="hardAlpha"/>
<feOffset dx="-0.5" dy="-0.5"/>
<feComposite in2="hardAlpha" operator="arithmetic" k2="-1" k3="1"/>
<feColorMatrix type="matrix" values="0 0 0 0 0.883333 0 0 0 0 0.926449 0 0 0 0 1 0 0 0 1 0"/>
<feBlend mode="normal" in2="shape" result="effect1_innerShadow_4_2916"/>
</filter>
<filter id="filter1_i_4_2916" x="17.6799" y="10.4133" width="11.0837" height="14.4636" filterUnits="userSpaceOnUse" color-interpolation-filters="sRGB">
<feFlood flood-opacity="0" result="BackgroundImageFix"/>
<feBlend mode="normal" in="SourceGraphic" in2="BackgroundImageFix" result="shape"/>
<feColorMatrix in="SourceAlpha" type="matrix" values="0 0 0 0 0 0 0 0 0 0 0 0 0 0 0 0 0 0 127 0" result="hardAlpha"/>
<feOffset dx="-0.5" dy="-0.5"/>
<feComposite in2="hardAlpha" operator="arithmetic" k2="-1" k3="1"/>
<feColorMatrix type="matrix" values="0 0 0 0 0.883333 0 0 0 0 0.926449 0 0 0 0 1 0 0 0 1 0"/>
<feBlend mode="normal" in2="shape" result="effect1_innerShadow_4_2916"/>
</filter>
<linearGradient id="paint0_linear_4_2916" x1="16.9025" y1="10.0184" x2="21.0151" y2="30.8652" gradientUnits="userSpaceOnUse">
<stop stop-color="white"/>
<stop offset="0.484375" stop-color="#F2F2F2"/>
<stop offset="1" stop-color="#ACACAC"/>
</linearGradient>
<linearGradient id="paint1_linear_4_2916" x1="21.1731" y1="11.2" x2="23.2269" y2="24.8761" gradientUnits="userSpaceOnUse">
<stop stop-color="#BCBCBC"/>
<stop offset="0.484375" stop-color="white"/>
<stop offset="1" stop-color="white"/>
</linearGradient>
<clipPath id="clip0_4_2916">
<rect width="15.9794" height="22.4" fill="white" transform="translate(12.7842 8.79999)"/>
</clipPath>
</defs>
</svg>
