<svg width="298" height="280" viewBox="0 0 298 280" fill="none" xmlns="http://www.w3.org/2000/svg">
<path d="M264.312 0.327209H33.7044C15.116 0.327209 0 15.4382 0 34.0486V245.99C0 264.579 15.116 279.674 33.7044 279.674H264.311C282.899 279.674 297.999 264.579 297.999 245.99V34.0486C298 15.4382 282.9 0.327209 264.312 0.327209ZM192.702 50.4774C210.678 50.4774 225.256 65.0566 225.256 83.0316C225.256 101.007 210.677 115.586 192.702 115.586C174.721 115.586 160.148 101.007 160.148 83.0316C160.148 65.0566 174.721 50.4774 192.702 50.4774ZM253.741 248.518H148.997H48.9192C39.9282 248.518 35.924 242.013 39.9771 233.988L95.8462 123.329C99.8943 115.305 107.609 114.588 113.073 121.728L169.251 195.144C174.715 202.284 184.265 202.892 190.585 196.495L204.328 182.578C210.644 176.18 219.949 176.972 225.104 184.335L260.691 235.17C265.836 242.544 262.732 248.518 253.741 248.518Z" fill="#DCDCDC"/>
</svg>
